<?xml version="1.0" encoding="utf-8"?>
<!-- Generator: Adobe Illustrator 26.2.1, SVG Export Plug-In . SVG Version: 6.00 Build 0)  -->
<svg version="1.1" id="Layer_1" xmlns="http://www.w3.org/2000/svg" xmlns:xlink="http://www.w3.org/1999/xlink" x="0px" y="0px"
	 viewBox="0 0 174.9 206.5" style="enable-background:new 0 0 174.9 206.5;" xml:space="preserve">
<style type="text/css">
	.st0{fill:url(#SVGID_1_);}
	.st1{fill:url(#SVGID_00000083803959415779791180000005492490322169147292_);}
	.st2{fill:#A88700;}
	.st3{fill:#FCFCFC;}
	.st4{fill:url(#SVGID_00000028285952682830546970000013203504664315946661_);}
	.st5{fill:url(#SVGID_00000181049806460301815910000005757005797466119843_);}
	.st6{filter:url(#Adobe_OpacityMaskFilter);}
	.st7{fill:url(#SVGID_00000011011824142757938050000001186866030383211696_);}
	.st8{mask:url(#SVGID_00000065758239511239469190000018325690806590788520_);}
	.st9{filter:url(#Adobe_OpacityMaskFilter_00000039133544628294969130000012764475341458089346_);}
	.st10{filter:url(#Adobe_OpacityMaskFilter_00000010269092105972982110000015718740070457785759_);}
	.st11{fill:url(#SVGID_00000165937510692618758830000016209178628782376871_);}
	.st12{opacity:0.45;fill:#482C0B;}
	.st13{opacity:0.25;fill:url(#SVGID_00000169515786013187391510000007665036722375179419_);}
	.st14{opacity:0.5;fill:url(#SVGID_00000121981624856156791170000008638436314083194558_);}
	.st15{fill:url(#SVGID_00000084497258715814276440000016624674728000598919_);}
	.st16{fill:url(#SVGID_00000103232036565331432120000004317560272222593667_);}
	.st17{fill:url(#SVGID_00000114786037031625656010000015490207662322408116_);}
	.st18{fill:#8A0000;}
	.st19{fill:url(#SVGID_00000173126476525892340270000000790757391249829514_);}
	.st20{fill:#F87979;}
	.st21{fill:url(#SVGID_00000029043320281194640530000000650481122159389849_);}
	.st22{fill:url(#SVGID_00000155133616734923026030000009483497219596843688_);}
	.st23{fill:#990000;}
	.st24{fill:url(#SVGID_00000157297553770701070670000004586902885998772641_);}
	.st25{fill:#FE9696;}
</style>
<g>
	
		<image style="overflow:visible;opacity:0.7;" width="158" height="190" xlink:href="2758A4E2.png"  transform="matrix(1 0 0 1 6.8744 13.6533)">
	</image>
	
		<linearGradient id="SVGID_1_" gradientUnits="userSpaceOnUse" x1="189.8871" y1="171.2268" x2="313.7051" y2="21.1244" gradientTransform="matrix(-0.999 4.480000e-02 4.480000e-02 0.999 319.4536 -7.4469)">
		<stop  offset="0" style="stop-color:#FFF199"/>
		<stop  offset="4.594948e-02" style="stop-color:#F8E47F"/>
		<stop  offset="8.749868e-02" style="stop-color:#F4DD6F"/>
		<stop  offset="0.1196" style="stop-color:#F2DA69"/>
		<stop  offset="0.3753" style="stop-color:#F8E577"/>
		<stop  offset="0.5909" style="stop-color:#FAE97D"/>
		<stop  offset="0.8485" style="stop-color:#F4E06D"/>
		<stop  offset="0.9523" style="stop-color:#F3DD74"/>
		<stop  offset="1" style="stop-color:#F2DA79"/>
	</linearGradient>
	<path class="st0" d="M11.1,200.9c34.1-1,47-2.7,63.5-5.7c15.7-2.9,56.6-16.2,67.1-28.3c9.4-11,7.4-111.9,4.8-153.4
		c0,0-71.1,3.2-94.8,4.3c-15.3,0.7-29.8,1.9-44.8,3.4c-1,16-0.9,66.3-0.1,82.7C7.8,128,11.1,200.9,11.1,200.9z"/>
	
		<linearGradient id="SVGID_00000112599790076314284640000001424618375480566421_" gradientUnits="userSpaceOnUse" x1="181.8524" y1="17.1511" x2="321.4149" y2="17.1511" gradientTransform="matrix(-1 0 0 1 328.2361 0)">
		<stop  offset="0.7863" style="stop-color:#DEB255"/>
		<stop  offset="1" style="stop-color:#C49E4A"/>
	</linearGradient>
	<path style="fill:url(#SVGID_00000112599790076314284640000001424618375480566421_);" d="M6.8,20.9c15-1.6,29.3-2.8,44.6-3.4
		c23.7-1,94.9-4.3,94.9-4.3c0,0.1,0,0.1,0,0.2c-3.4,0.2-71.7,3.2-94.8,4.3c-15.3,0.7-29.8,1.9-44.8,3.4L6.8,20.9z"/>
	<path class="st2" d="M114.7,182.4c11.6-4.7,22-10.2,26.6-15.6c9.4-11,7.4-111.9,4.8-153.4l0.3-0.2c2.5,41.5,4.6,142.6-4.8,153.6
		c-4.6,5.4-15.2,10.9-26.9,15.7L114.7,182.4z"/>
	<path class="st3" d="M117.3,181.5c-15.4,6.6-33.5,11.9-42.8,13.7c16.1-4.1,30.6-13.6,42-31.2L117.3,181.5z"/>
	
		<linearGradient id="SVGID_00000020388395663392205200000005836516724036490923_" gradientUnits="userSpaceOnUse" x1="197.232" y1="174.0162" x2="205.0982" y2="159.222" gradientTransform="matrix(-0.999 4.480000e-02 4.480000e-02 0.999 319.4536 -7.4469)">
		<stop  offset="0.1061" style="stop-color:#A88700"/>
		<stop  offset="0.4697" style="stop-color:#FFD11C"/>
		<stop  offset="1" style="stop-color:#AB8A00"/>
	</linearGradient>
	<path style="fill:url(#SVGID_00000020388395663392205200000005836516724036490923_);" d="M116.5,163.9c8.2,3.9,19.8,7.8,24.4,3.4
		c0.3-0.3,0.6-0.4,0.9-0.7c-0.1,0.1-0.1,0.1-0.2,0.2c-4.3,5-13.6,10.1-24.3,14.7L116.5,163.9z"/>
	
		<linearGradient id="SVGID_00000161589733657203806910000004458185789043239074_" gradientUnits="userSpaceOnUse" x1="216.5522" y1="184.2887" x2="224.1797" y2="169.9434" gradientTransform="matrix(-0.999 4.480000e-02 4.480000e-02 0.999 319.4536 -7.4469)">
		<stop  offset="0" style="stop-color:#DECB7F"/>
		<stop  offset="0.1414" style="stop-color:#C9A000"/>
		<stop  offset="0.2637" style="stop-color:#D6AF13"/>
		<stop  offset="0.5117" style="stop-color:#F8D445"/>
		<stop  offset="0.5606" style="stop-color:#FFDC50"/>
		<stop  offset="0.6519" style="stop-color:#FFDD54"/>
		<stop  offset="0.7357" style="stop-color:#FFDF5F"/>
		<stop  offset="0.8168" style="stop-color:#FFE271"/>
		<stop  offset="0.8955" style="stop-color:#FFE68B"/>
		<stop  offset="0.9473" style="stop-color:#FFEAA1"/>
	</linearGradient>
	<path style="fill:url(#SVGID_00000161589733657203806910000004458185789043239074_);" d="M141.6,166.8
		c-10.4,12.2-51.3,25.4-67.1,28.3c16.1-4.1,30.7-13,42-30.7c8.6,4.2,20.4,7.6,25.2,2.1C141.7,166.6,141.6,166.7,141.6,166.8z"/>
	<defs>
		<filter id="Adobe_OpacityMaskFilter" filterUnits="userSpaceOnUse" x="60.7" y="13.7" width="45.5" height="27.6">
			<feColorMatrix  type="matrix" values="1 0 0 0 0  0 1 0 0 0  0 0 1 0 0  0 0 0 1 0"/>
		</filter>
	</defs>
	
		<mask maskUnits="userSpaceOnUse" x="60.7" y="13.7" width="45.5" height="27.6" id="SVGID_00000095338042691316580500000004170474435137087637_">
		<g class="st6">
			
				<linearGradient id="SVGID_00000029040280359751631470000011899543437784692898_" gradientUnits="userSpaceOnUse" x1="212.8623" y1="24.2044" x2="263.7722" y2="24.2044" gradientTransform="matrix(-0.999 4.480000e-02 4.480000e-02 0.999 319.4536 -7.4469)">
				<stop  offset="0" style="stop-color:#333333"/>
				<stop  offset="9.522313e-02" style="stop-color:#545454"/>
				<stop  offset="0.4603" style="stop-color:#CECECE"/>
				<stop  offset="0.6212" style="stop-color:#FFFFFF"/>
			</linearGradient>
			<polygon style="fill:url(#SVGID_00000029040280359751631470000011899543437784692898_);" points="57.7,44.3 108.6,42 107.2,10.5 
				56.3,12.8 			"/>
		</g>
	</mask>
	<g style="mask:url(#SVGID_00000095338042691316580500000004170474435137087637_);">
		<defs>
			
				<filter id="Adobe_OpacityMaskFilter_00000132087680770568586580000015142312237463817908_" filterUnits="userSpaceOnUse" x="60.7" y="13.7" width="45.5" height="27.6">
				<feColorMatrix  type="matrix" values="1 0 0 0 0  0 1 0 0 0  0 0 1 0 0  0 0 0 1 0"/>
			</filter>
		</defs>
		
			<mask maskUnits="userSpaceOnUse" x="60.7" y="13.7" width="45.5" height="27.6" id="SVGID_00000095338042691316580500000004170474435137087637_">
			<g style="filter:url(#Adobe_OpacityMaskFilter_00000132087680770568586580000015142312237463817908_);">
				<defs>
					
						<filter id="Adobe_OpacityMaskFilter_00000008844049576304047290000006634759480234225061_" filterUnits="userSpaceOnUse" x="60.7" y="13.7" width="45.5" height="27.6">
						<feFlood  style="flood-color:white;flood-opacity:1" result="back"/>
						<feBlend  in="SourceGraphic" in2="back" mode="normal"/>
					</filter>
				</defs>
				
					<mask maskUnits="userSpaceOnUse" x="60.7" y="13.7" width="45.5" height="27.6" id="SVGID_00000095338042691316580500000004170474435137087637_">
					<g style="filter:url(#Adobe_OpacityMaskFilter_00000008844049576304047290000006634759480234225061_);">
					</g>
				</mask>
				
					<radialGradient id="SVGID_00000162321522016280665970000010484763631024916105_" cx="222.0832" cy="24.2488" r="13.7517" gradientTransform="matrix(-1.6539 7.420000e-02 4.480000e-02 0.999 449.6255 -13.1851)" gradientUnits="userSpaceOnUse">
					<stop  offset="0" style="stop-color:#B3B3B3"/>
					<stop  offset="0.1286" style="stop-color:#B0B0B0"/>
					<stop  offset="0.2171" style="stop-color:#A7A7A7"/>
					<stop  offset="0.2932" style="stop-color:#979797"/>
					<stop  offset="0.3623" style="stop-color:#828282"/>
					<stop  offset="0.3687" style="stop-color:#808080"/>
					<stop  offset="0.4124" style="stop-color:#737373"/>
					<stop  offset="0.6052" style="stop-color:#424242"/>
					<stop  offset="0.7743" style="stop-color:#1E1E1E"/>
					<stop  offset="0.9116" style="stop-color:#080808"/>
					<stop  offset="1" style="stop-color:#000000"/>
				</radialGradient>
				<path style="fill:url(#SVGID_00000162321522016280665970000010484763631024916105_);" d="M60.7,28.5C61,36.1,71.5,41.8,84,41.3
					c12.6-0.6,22.5-7.2,22.1-14.8c-0.3-7.6-10.8-13.3-23.4-12.7C70.2,14.3,60.3,21,60.7,28.5z"/>
			</g>
		</mask>
		<path class="st12" d="M60.7,28.5C61,36.1,71.5,41.8,84,41.3c12.6-0.6,22.5-7.2,22.1-14.8c-0.3-7.6-10.8-13.3-23.4-12.7
			C70.2,14.3,60.3,21,60.7,28.5z"/>
	</g>
	
		<radialGradient id="SVGID_00000012445210516122288690000017803647361317432979_" cx="250.4088" cy="28.803" r="3.0105" gradientTransform="matrix(-1 0 0 1 328.2361 0)" gradientUnits="userSpaceOnUse">
		<stop  offset="0" style="stop-color:#5E3518"/>
		<stop  offset="9.243160e-02" style="stop-color:#633C20"/>
		<stop  offset="0.2331" style="stop-color:#724E35"/>
		<stop  offset="0.4045" style="stop-color:#8A6C57"/>
		<stop  offset="0.6" style="stop-color:#AB9687"/>
		<stop  offset="0.8129" style="stop-color:#D6CBC4"/>
		<stop  offset="1" style="stop-color:#FFFFFF"/>
	</radialGradient>
	<path style="opacity:0.25;fill:url(#SVGID_00000012445210516122288690000017803647361317432979_);" d="M74.8,28.8c0,1.7,1.3,3,3,3
		c1.7,0,3-1.3,3-3c0-1.7-1.3-3-3-3C76.2,25.8,74.8,27.1,74.8,28.8z"/>
	
		<radialGradient id="SVGID_00000176735594717823499050000000097145962609351591_" cx="253.2965" cy="31.8137" r="3.0105" gradientTransform="matrix(-1 0 0 1 328.2361 0)" gradientUnits="userSpaceOnUse">
		<stop  offset="0" style="stop-color:#FFFFFF"/>
		<stop  offset="2.361178e-02" style="stop-color:#F6F6F6"/>
		<stop  offset="0.2383" style="stop-color:#ADADAD"/>
		<stop  offset="0.4399" style="stop-color:#6F6F6F"/>
		<stop  offset="0.6224" style="stop-color:#3F3F3F"/>
		<stop  offset="0.7824" style="stop-color:#1D1D1D"/>
		<stop  offset="0.9137" style="stop-color:#080808"/>
		<stop  offset="1" style="stop-color:#000000"/>
	</radialGradient>
	<path style="opacity:0.5;fill:url(#SVGID_00000176735594717823499050000000097145962609351591_);" d="M71.9,31.8c0,1.7,1.3,3,3,3
		c1.7,0,3-1.3,3-3c0-1.7-1.3-3-3-3C73.3,28.8,71.9,30.2,71.9,31.8z"/>
	<g>
		
			<linearGradient id="SVGID_00000164475620079075989470000007286712202410151572_" gradientUnits="userSpaceOnUse" x1="243.423" y1="26.2708" x2="245.3263" y2="28.1742" gradientTransform="matrix(-0.999 4.480000e-02 4.480000e-02 0.999 319.4536 -7.4469)">
			<stop  offset="0" style="stop-color:#2B2200"/>
			<stop  offset="1" style="stop-color:#99832A"/>
		</linearGradient>
		<path style="fill:url(#SVGID_00000164475620079075989470000007286712202410151572_);" d="M75.4,30.7c0-0.7,0.5-1.2,1.1-1.3
			c0.7,0,1.2,0.5,1.3,1.1c0,0.7-0.5,1.2-1.1,1.3C76,31.8,75.4,31.3,75.4,30.7z"/>
		
			<linearGradient id="SVGID_00000075121598422346046590000014430717740915738502_" gradientUnits="userSpaceOnUse" x1="152.0718" y1="-180.6246" x2="152.0718" y2="-183.2557" gradientTransform="matrix(-0.5996 -0.6655 -0.5925 0.5339 56.568 225.0833)">
			<stop  offset="1.881180e-03" style="stop-color:#696969"/>
			<stop  offset="0.2576" style="stop-color:#FCFCFC"/>
			<stop  offset="0.5505" style="stop-color:#D4D4D4"/>
			<stop  offset="0.7778" style="stop-color:#434343"/>
			<stop  offset="0.8212" style="stop-color:#474747"/>
			<stop  offset="0.8657" style="stop-color:#535353"/>
			<stop  offset="0.9108" style="stop-color:#686868"/>
			<stop  offset="0.956" style="stop-color:#858585"/>
			<stop  offset="1" style="stop-color:#A8A8A8"/>
		</linearGradient>
		<path style="fill:url(#SVGID_00000075121598422346046590000014430717740915738502_);" d="M68.4,23l7.6,8.4
			c0.7,0.5,1.9-0.6,1.6-1.4L70,21.6L68.4,23z"/>
		
			<linearGradient id="SVGID_00000101103090964098387660000002607488560276519319_" gradientUnits="userSpaceOnUse" x1="150.1063" y1="-181.942" x2="155.7074" y2="-181.9421" gradientTransform="matrix(-0.5996 -0.6655 -0.5925 0.5339 56.566 225.0833)">
			<stop  offset="0" style="stop-color:#FFFFFF"/>
			<stop  offset="1" style="stop-color:#000000"/>
		</linearGradient>
		<path style="fill:url(#SVGID_00000101103090964098387660000002607488560276519319_);" d="M68.4,23l7.6,8.4
			c0.7,0.5,1.9-0.6,1.6-1.4L70,21.6L68.4,23z"/>
		<path class="st18" d="M59.1,20.7c-0.3,4.5,3.1,8,7.5,7.8c4.5-0.2,8.4-4,8.7-8.5c0.3-4.5-3.1-8-7.5-7.8
			C63.3,12.4,59.5,16.2,59.1,20.7z"/>
		
			<radialGradient id="SVGID_00000143589975234649436700000001321664668193396375_" cx="256.4635" cy="15.6858" r="15.3404" gradientTransform="matrix(-0.999 4.480000e-02 4.480000e-02 0.999 319.4536 -7.4469)" gradientUnits="userSpaceOnUse">
			<stop  offset="1.881180e-03" style="stop-color:#FF5555"/>
			<stop  offset="8.380150e-02" style="stop-color:#FB5252"/>
			<stop  offset="0.1679" style="stop-color:#EF4747"/>
			<stop  offset="0.2529" style="stop-color:#DA3636"/>
			<stop  offset="0.3381" style="stop-color:#BD1E1E"/>
			<stop  offset="0.4233" style="stop-color:#990000"/>
			<stop  offset="0.5304" style="stop-color:#A80000"/>
			<stop  offset="0.6667" style="stop-color:#DD3636"/>
			<stop  offset="0.8333" style="stop-color:#8C0000"/>
		</radialGradient>
		<path style="fill:url(#SVGID_00000143589975234649436700000001321664668193396375_);" d="M58.7,20.8c-0.3,4.5,3.1,8,7.5,7.8
			c4.5-0.2,8.4-4,8.7-8.5c0.3-4.5-3.1-8-7.5-7.8C62.9,12.5,59,16.3,58.7,20.8z"/>
		<path class="st20" d="M59.1,20.8c0.3-4.2,4-7.8,8.2-8c0.1,0,0.3,0,0.4,0c-4.2,0.2-7.9,3.8-8.2,8c-0.3,4.1,2.7,7.3,6.7,7.3
			c0,0,0,0,0,0C62,28.3,58.8,25,59.1,20.8z"/>
		
			<linearGradient id="SVGID_00000006708178742558623580000018267802359709425072_" gradientUnits="userSpaceOnUse" x1="253.2329" y1="9.6105" x2="260.7346" y2="15.9052" gradientTransform="matrix(-0.999 4.480000e-02 4.480000e-02 0.999 319.4536 -7.4469)">
			<stop  offset="0" style="stop-color:#B40000"/>
			<stop  offset="7.690354e-02" style="stop-color:#A20000"/>
			<stop  offset="0.1632" style="stop-color:#960000"/>
			<stop  offset="0.2475" style="stop-color:#920000"/>
			<stop  offset="0.5758" style="stop-color:#B40000"/>
			<stop  offset="0.8687" style="stop-color:#FF8484"/>
			<stop  offset="0.9981" style="stop-color:#AD2828"/>
		</linearGradient>
		<path style="fill:url(#SVGID_00000006708178742558623580000018267802359709425072_);" d="M54.7,13.8l8.6,9.8
			c2.6,2.6,9.5-2.6,6.9-5.8l-8.6-9.8L54.7,13.8z"/>
		
			<linearGradient id="SVGID_00000000197169074003600010000012985546740399651977_" gradientUnits="userSpaceOnUse" x1="253.1614" y1="9.9146" x2="260.3074" y2="15.9108" gradientTransform="matrix(-0.999 4.480000e-02 4.480000e-02 0.999 319.4536 -7.4469)">
			<stop  offset="0" style="stop-color:#900000"/>
			<stop  offset="5.559875e-02" style="stop-color:#850000"/>
			<stop  offset="0.1527" style="stop-color:#790000"/>
			<stop  offset="0.2475" style="stop-color:#750000"/>
			<stop  offset="0.5758" style="stop-color:#900000"/>
			<stop  offset="0.8687" style="stop-color:#DE5757"/>
			<stop  offset="0.9981" style="stop-color:#9E0C0C"/>
		</linearGradient>
		<path style="fill:url(#SVGID_00000000197169074003600010000012985546740399651977_);" d="M70.1,17.6L61.6,8l0,0l8.6,9.8
			c3,3.3-4.1,8.4-6.9,5.8C66,25.8,72.6,20.8,70.1,17.6z"/>
		<path class="st23" d="M52.2,11.9C52,15.4,54.6,18,58,17.9c3.4-0.2,6.4-3.1,6.6-6.5c0.2-3.4-2.3-6.1-5.7-5.9
			C55.5,5.6,52.5,8.5,52.2,11.9z"/>
		
			<linearGradient id="SVGID_00000157273967014290866310000001544198238032554132_" gradientUnits="userSpaceOnUse" x1="257.142" y1="3.1964" x2="266.5825" y2="11.1179" gradientTransform="matrix(-0.999 4.480000e-02 4.480000e-02 0.999 319.4536 -7.4469)">
			<stop  offset="0" style="stop-color:#D10606"/>
			<stop  offset="0.1134" style="stop-color:#DA1717"/>
			<stop  offset="0.3376" style="stop-color:#E93434"/>
			<stop  offset="0.5614" style="stop-color:#F34949"/>
			<stop  offset="0.7825" style="stop-color:#FA5555"/>
			<stop  offset="0.9981" style="stop-color:#FC5959"/>
		</linearGradient>
		<path style="fill:url(#SVGID_00000157273967014290866310000001544198238032554132_);" d="M52.4,11.7c-0.2,3.2,2.2,5.7,5.4,5.6
			c3.2-0.1,6-2.9,6.2-6.1c0.2-3.2-2.2-5.7-5.4-5.6C55.4,5.7,52.6,8.5,52.4,11.7z"/>
		<path class="st25" d="M52.6,11.7c0.2-3.1,2.9-5.7,5.9-5.8c0.1,0,0.3,0,0.4,0c-3,0.2-5.7,2.7-5.9,5.8c-0.2,2.9,1.9,5.2,4.7,5.3
			c0,0,0,0,0,0C54.7,17.1,52.4,14.8,52.6,11.7z"/>
	</g>
</g>
</svg>
